<svg xmlns="http://www.w3.org/2000/svg" viewBox="-86 -850 1003 1003">
<rect x="-86" y="-850" width="1003" height="1003" rx="221" fill="#ffffff"/>
<g transform="translate(62.9 -263.5) scale(0.5552)">
<path fill="#F7554A" fill-opacity="0.88" d="M189-470Q218-508 268-534Q318-560 381-560L381-560Q453-560 512.5-524.5Q572-489 606-425Q640-361 640-278L640-278Q640-195 606-129.5Q572-64 512.5-27.5Q453 9 381 9L381 9Q318 9 269-16.5Q220-42 189-80L189-80L189 262L75 262L75-551L189-551L189-470ZM524-278Q524-335 500.5-376.5Q477-418 438.5-439.5Q400-461 356-461L356-461Q313-461 274.5-439Q236-417 212.5-375Q189-333 189-276L189-276Q189-219 212.5-176.5Q236-134 274.5-112Q313-90 356-90L356-90Q400-90 438.5-112.5Q477-135 500.5-178Q524-221 524-278L524-278Z"/>
<path fill="#3A3A3C" d="M595-281Q595-368 626.5-433Q658-498 712.5-533Q767-568 834-568L834-568Q892-568 934-545Q976-522 999-483L999-483L999-561L1195-561L1195 0L999 0L999-78Q976-39 933.5-16Q891 7 834 7L834 7Q767 7 712.5-28Q658-63 626.5-128.5Q595-194 595-281L595-281ZM999-281Q999-335 969.5-366Q940-397 897-397L897-397Q853-397 824-366.5Q795-336 795-281L795-281Q795-227 824-195.5Q853-164 897-164L897-164Q940-164 969.5-195Q999-226 999-281L999-281Z"/>
</g>
</svg>