<svg xmlns="http://www.w3.org/2000/svg" viewBox="0 0 64 64" width="64" height="64" role="img" aria-label="Demo neighbor avatar">
  <defs><clipPath id="c"><circle cx="32" cy="32" r="32"/></clipPath></defs>
  <g clip-path="url(#c)">
    <rect width="64" height="64" fill="#e0e7ff"/>
    <path d="M32 44c12 0 22 9 22 20v4H10v-4c0-11 10-20 22-20z" fill="#7c3aed"/>
    <rect x="27" y="37" width="10" height="10" rx="4" fill="#ffdbac"/>
    <ellipse cx="32" cy="26" rx="15" ry="17" fill="#ffdbac"/>
    <path d="M19 28c0 11 6 17 13 17s13-6 13-17c2 9 0 21-13 21s-15-12-13-21z" fill="#b45309" opacity=".8"/>
    <path d="M17 27c0-10 6-18 15-18 7 0 12 4 14 10-7-4-18-3-23 1-3 3-5 9-5 9s-1-1-1-2z" fill="#b45309"/>
    <circle cx="26.5" cy="26" r="2" fill="#1f2937"/>
    <circle cx="37.5" cy="26" r="2" fill="#1f2937"/>
    <path d="M27 33c1.8 2.2 8.2 2.2 10 0" stroke="#1f2937" stroke-width="1.8" stroke-linecap="round" fill="none"/>
  </g>
</svg>