<svg xmlns="http://www.w3.org/2000/svg" viewBox="0 0 64 64" width="64" height="64" role="img" aria-label="Demo neighbor avatar">
  <defs><clipPath id="c"><circle cx="32" cy="32" r="32"/></clipPath></defs>
  <g clip-path="url(#c)">
    <rect width="64" height="64" fill="#d1fae5"/>
    <path d="M32 44c12 0 22 9 22 20v4H10v-4c0-11 10-20 22-20z" fill="#c2410c"/>
    <rect x="27" y="37" width="10" height="10" rx="4" fill="#c68642"/>
    <ellipse cx="32" cy="26" rx="15" ry="17" fill="#c68642"/>
    
    <path d="M16 27c0-11 7-18 16-18s16 7 16 18c0 2-2 3-3 2-3-5-8-7-13-7s-10 2-13 7c-1 1-3 0-3-2z" fill="#1f2937"/>
    <circle cx="26.5" cy="26" r="2" fill="#1f2937"/>
    <circle cx="37.5" cy="26" r="2" fill="#1f2937"/>
    <path d="M27 33c1.8 2.2 8.2 2.2 10 0" stroke="#1f2937" stroke-width="1.8" stroke-linecap="round" fill="none"/>
  </g>
</svg>